<svg id="图层_1" data-name="图层 1" xmlns="http://www.w3.org/2000/svg" xmlns:xlink="http://www.w3.org/1999/xlink" viewBox="0 0 111 20"><defs><style>.cls-1{fill:#fff;}.cls-2{mask:url(#mask);}.cls-3{fill:#cca6c4;}.cls-4{fill:#494368;}.cls-5{fill:url(#未命名的渐变);}.cls-6{font-size:8px;font-family:BlackoakStd, Blackoak Std;}</style><mask id="mask" x="0" y="0" width="122" height="20" maskUnits="userSpaceOnUse"><g id="b"><rect class="cls-1" width="110" height="20" rx="3"/></g></mask><linearGradient id="未命名的渐变" x1="-882.47" y1="174.1" x2="-882.47" y2="175.1" gradientTransform="translate(98010 -3482) scale(111 20)" gradientUnits="userSpaceOnUse"><stop offset="0" stop-color="#bbb" stop-opacity="0.1"/><stop offset="1" stop-opacity="0.1"/></linearGradient></defs><title>macOS</title><g class="cls-2"><path class="cls-3" d="M0,0H34V20H0Z"/><path class="cls-4" d="M34,0h77V20H34Z"/><path class="cls-5" d="M0,0H111V20H0Z"/></g><path d="M26.53,13.36a7.92,7.92,0,0,1-1.66,2.31c-1,1-2,2-3.68,2s-2.12-.65-4-.65-2.41.63-3.94.66-2.78-1.07-3.79-2c-2-2-3.64-5.69-1.51-8.15a6.62,6.62,0,0,1,5-2c1.54,0,3,.7,3.94.7s2.74-.87,4.61-.74A6.87,6.87,0,0,1,25.9,7c-.11,0-2.63,1.05-2.6,3.09,0,2.45,3.2,3.26,3.23,3.27M20.28,4.08a3,3,0,0,0,1.26-2.6A6.54,6.54,0,0,0,18,2.71a2.79,2.79,0,0,0-1.26,2.51,5.61,5.61,0,0,0,3.55-1.14"/><text class="cls-6" transform="translate(38.55 13.21)">macOS</text></svg>